<svg width="973" height="600" viewBox="0 0 973 600" fill="none" xmlns="http://www.w3.org/2000/svg">
<g filter="url(#filter0_d_18_21058)">
<path d="M441.288 558C369.63 558.061 300.518 532.316 247.436 485.788C247.175 485.559 247.019 485.239 247.002 484.899C246.984 484.558 247.108 484.225 247.345 483.972C247.581 483.72 247.912 483.568 248.264 483.551C248.617 483.534 248.961 483.653 249.223 483.881C301.816 529.98 370.29 555.487 441.288 555.427C540.939 555.427 631.874 506.523 684.537 424.61C684.629 424.466 684.749 424.341 684.892 424.242C685.034 424.144 685.194 424.073 685.365 424.034C685.535 423.995 685.712 423.99 685.885 424.017C686.057 424.044 686.223 424.104 686.372 424.194C686.52 424.283 686.649 424.4 686.751 424.537C686.853 424.675 686.926 424.831 686.965 424.995C687.005 425.16 687.011 425.331 686.982 425.498C686.953 425.665 686.891 425.824 686.798 425.968C660.897 466.364 624.75 499.696 581.784 522.803C538.818 545.909 490.457 558.025 441.288 558Z" fill="#4361EE"/>
<path d="M672 426.027L672.7 428.571L685.802 425.262L688.296 438L691 437.513L687.958 422L672 426.027Z" fill="#4361EE"/>
<path d="M261.929 482L262 484.612L248.92 484.938L250.208 497.745L247.564 498L246 482.401L261.929 482Z" fill="#4361EE"/>
<path d="M319 245.5V384.5C319 384.96 318.907 385.415 318.725 385.839C318.544 386.264 318.278 386.649 317.942 386.974C317.607 387.299 317.208 387.557 316.77 387.733C316.332 387.909 315.862 388 315.387 388H71.6153C71.4418 388.001 71.2685 387.988 71.0972 387.961C70.2373 387.841 69.4509 387.425 68.882 386.79C68.3131 386.154 68 385.341 68 384.5V245.5C67.9997 244.572 68.3801 243.682 69.0577 243.025C69.7352 242.369 70.6544 242 71.6129 242H315.385C315.859 242 316.329 242.09 316.768 242.266C317.206 242.442 317.605 242.699 317.941 243.024C318.276 243.349 318.543 243.734 318.724 244.159C318.906 244.583 319 245.038 319 245.497V245.5Z" fill="#E6E6E6"/>
<path d="M129.5 325C146.897 325 161 311.345 161 294.5C161 277.655 146.897 264 129.5 264C112.103 264 98 277.655 98 294.5C98 311.345 112.103 325 129.5 325Z" fill="#4361EE"/>
<path d="M229 389H73.5808C73.3862 389.002 73.1918 388.987 73 388.955L146.506 265.532C146.955 264.764 147.606 264.124 148.393 263.679C149.18 263.234 150.075 263 150.986 263C151.897 263 152.791 263.234 153.578 263.679C154.365 264.124 155.016 264.764 155.465 265.532L204.797 348.359L207.16 352.322L229 389Z" fill="#3F3D56"/>
<path opacity="0.2" d="M229 389H176L202.017 351.999L203.891 349.333L204.826 348L207.187 351.999L229 389Z" fill="black"/>
<path d="M316 389H181L207.16 352.169L209.043 349.515L243.132 301.517C245.367 298.371 250.744 298.175 253.371 300.924C253.548 301.111 253.712 301.309 253.862 301.517L316 389Z" fill="#3F3D56"/>
<path d="M332.321 237.387C331.514 235.226 330.039 233.358 328.095 232.036C326.152 230.714 323.835 230.003 321.46 230H65.5401C64.0245 229.999 62.5236 230.288 61.1232 230.849C59.7228 231.409 58.4504 232.232 57.3787 233.268C56.307 234.305 55.457 235.536 54.8773 236.89C54.2975 238.245 53.9994 239.697 54 241.163V436.837C54.0043 439.797 55.2216 442.633 57.3848 444.726C59.5481 446.818 62.4808 447.996 65.5401 448H321.46C324.519 447.996 327.452 446.818 329.615 444.726C331.778 442.633 332.996 439.797 333 436.837V241.163C333.002 239.876 332.772 238.598 332.321 237.387ZM331.642 436.837C331.639 439.449 330.565 441.952 328.656 443.798C326.747 445.645 324.159 446.684 321.46 446.687H65.5401C62.8406 446.684 60.2525 445.645 58.3436 443.798C56.4348 441.952 55.3609 439.449 55.3576 436.837V241.163C55.3609 238.551 56.4348 236.048 58.3436 234.202C60.2525 232.355 62.8406 231.316 65.5401 231.313H321.46C324.159 231.316 326.747 232.355 328.656 234.202C330.565 236.048 331.639 238.551 331.642 241.163V436.837Z" fill="#3F3D56"/>
<path d="M895 67.5369V287.463C895 288.19 894.853 288.91 894.566 289.581C894.279 290.253 893.858 290.863 893.327 291.377C892.796 291.892 892.166 292.299 891.473 292.578C890.779 292.856 890.036 293 889.285 293H503.718C503.444 293.002 503.17 292.981 502.899 292.938C501.539 292.749 500.295 292.091 499.395 291.085C498.495 290.079 498 288.793 498 287.463V67.5369C498 66.81 498.147 66.0902 498.434 65.4186C498.721 64.747 499.142 64.1366 499.673 63.6225C500.204 63.1083 500.834 62.7004 501.527 62.422C502.22 62.1437 502.964 62.0002 503.714 62H889.282C890.032 61.9998 890.776 62.1427 891.469 62.4206C892.163 62.6986 892.793 63.1061 893.324 63.6199C893.855 64.1337 894.277 64.7437 894.564 65.4152C894.852 66.0867 895 66.8064 895 67.5333V67.5369Z" fill="#E6E6E6"/>
<path d="M595 193C622.614 193 645 171.286 645 144.5C645 117.714 622.614 96 595 96C567.386 96 545 117.714 545 144.5C545 171.286 567.386 193 595 193Z" fill="#4361EE"/>
<path d="M753 294H505.923C505.614 294.003 505.305 293.98 505 293.929L621.856 98.9995C622.569 97.7855 623.604 96.7756 624.855 96.0729C626.106 95.3702 627.529 95 628.977 95C630.426 95 631.848 95.3702 633.099 96.0729C634.35 96.7756 635.385 97.7855 636.098 98.9995L714.523 229.812L718.281 236.072L753 294Z" fill="#3F3D56"/>
<path opacity="0.2" d="M753 294H669L710.235 236.242L713.204 232.081L714.687 230L718.428 236.242L753 294Z" fill="black"/>
<path d="M890 294H677L718.275 235.888L721.246 231.702L775.031 155.971C778.557 151.008 787.04 150.699 791.186 155.035C791.464 155.331 791.723 155.643 791.96 155.971L890 294Z" fill="#3F3D56"/>
<path d="M916.924 53.7244C915.646 50.2943 913.309 47.3289 910.23 45.2313C907.151 43.1336 903.481 42.0054 899.718 42H494.282C491.881 41.9991 489.503 42.4567 487.285 43.3468C485.066 44.2368 483.051 45.5418 481.353 47.1871C479.655 48.8325 478.308 50.7859 477.39 52.9358C476.471 55.0858 475.999 57.39 476 59.7169V370.283C476.007 374.98 477.935 379.482 481.362 382.804C484.789 386.125 489.436 387.993 494.282 388H899.718C904.564 387.993 909.21 386.125 912.638 382.804C916.065 379.482 917.993 374.98 918 370.283V59.7169C918.003 57.674 917.639 55.6462 916.924 53.7244ZM915.849 370.283C915.844 374.428 914.143 378.401 911.119 381.331C908.094 384.262 903.994 385.911 899.718 385.916H494.282C490.005 385.911 485.905 384.262 482.881 381.331C479.857 378.401 478.156 374.428 478.151 370.283V59.7169C478.156 55.5724 479.857 51.5991 482.881 48.6686C485.905 45.738 490.005 44.0894 494.282 44.0843H899.718C903.994 44.0894 908.094 45.738 911.119 48.6686C914.143 51.5991 915.844 55.5724 915.849 59.7169V370.283Z" fill="#3F3D56"/>
<rect x="14" y="3" width="944" height="583" rx="8" stroke="#4361EE" stroke-opacity="0.75" stroke-width="5" stroke-linecap="round" stroke-dasharray="8 10"/>
</g>
<defs>
<filter id="filter0_d_18_21058" x="-4" y="0" width="980.049" height="607.5" filterUnits="userSpaceOnUse" color-interpolation-filters="sRGB">
<feFlood flood-opacity="0" result="BackgroundImageFix"/>
<feColorMatrix in="SourceAlpha" type="matrix" values="0 0 0 0 0 0 0 0 0 0 0 0 0 0 0 0 0 0 127 0" result="hardAlpha"/>
<feOffset dy="4"/>
<feGaussianBlur stdDeviation="2"/>
<feComposite in2="hardAlpha" operator="out"/>
<feColorMatrix type="matrix" values="0 0 0 0 0 0 0 0 0 0 0 0 0 0 0 0 0 0 0.25 0"/>
<feBlend mode="normal" in2="BackgroundImageFix" result="effect1_dropShadow_18_21058"/>
<feBlend mode="normal" in="SourceGraphic" in2="effect1_dropShadow_18_21058" result="shape"/>
</filter>
</defs>
</svg>
